<mxfile host="app.diagrams.net" agent="Mozilla/5.0 (X11; Linux x86_64) AppleWebKit/537.36 (KHTML, like Gecko) Chrome/135.0.0.0 Safari/537.36" version="26.1.1">
  <diagram id="wa_p4A_vp_m2z748Xil9" name="Page-1">
    <mxGraphModel dx="1434" dy="754" grid="1" gridSize="10" guides="1" tooltips="1" connect="1" arrows="1" fold="1" page="1" pageScale="1" pageWidth="850" pageHeight="1100" math="0" shadow="0">
      <root>
        <mxCell id="0" />
        <mxCell id="1" parent="0" />
        <mxCell id="7JvirAZWeiCpIkFWJVq3-3" value="Scan Request" style="edgeStyle=orthogonalEdgeStyle;rounded=0;orthogonalLoop=1;jettySize=auto;html=1;exitX=0.5;exitY=1;exitDx=0;exitDy=0;entryX=0.5;entryY=0;entryDx=0;entryDy=0;" parent="1" source="7JvirAZWeiCpIkFWJVq3-1" target="7JvirAZWeiCpIkFWJVq3-2" edge="1">
          <mxGeometry relative="1" as="geometry" />
        </mxCell>
        <mxCell id="7JvirAZWeiCpIkFWJVq3-1" value="LeakTK-Monitor&amp;nbsp;&lt;div&gt;(GitHub, GitLab, Jira, Etc..)&lt;/div&gt;" style="rounded=0;whiteSpace=wrap;html=1;" parent="1" vertex="1">
          <mxGeometry x="70" y="40" width="190" height="60" as="geometry" />
        </mxCell>
        <mxCell id="TAEPjFpnTW_wvItJaBC--4" style="edgeStyle=orthogonalEdgeStyle;rounded=0;orthogonalLoop=1;jettySize=auto;html=1;exitX=1;exitY=0.5;exitDx=0;exitDy=0;entryX=1;entryY=0.5;entryDx=0;entryDy=0;" edge="1" parent="1" source="7JvirAZWeiCpIkFWJVq3-2" target="7JvirAZWeiCpIkFWJVq3-2">
          <mxGeometry relative="1" as="geometry" />
        </mxCell>
        <mxCell id="TAEPjFpnTW_wvItJaBC--5" style="edgeStyle=orthogonalEdgeStyle;rounded=0;orthogonalLoop=1;jettySize=auto;html=1;exitX=0.5;exitY=1;exitDx=0;exitDy=0;entryX=1;entryY=0.5;entryDx=0;entryDy=0;" edge="1" parent="1" source="7JvirAZWeiCpIkFWJVq3-4" target="7JvirAZWeiCpIkFWJVq3-2">
          <mxGeometry relative="1" as="geometry" />
        </mxCell>
        <mxCell id="TAEPjFpnTW_wvItJaBC--6" value="Patterns" style="edgeLabel;html=1;align=center;verticalAlign=middle;resizable=0;points=[];" vertex="1" connectable="0" parent="TAEPjFpnTW_wvItJaBC--5">
          <mxGeometry x="0.1059" y="-1" relative="1" as="geometry">
            <mxPoint as="offset" />
          </mxGeometry>
        </mxCell>
        <mxCell id="TAEPjFpnTW_wvItJaBC--8" value="Scan Response" style="edgeStyle=orthogonalEdgeStyle;rounded=0;orthogonalLoop=1;jettySize=auto;html=1;exitX=0.5;exitY=1;exitDx=0;exitDy=0;entryX=0.5;entryY=0;entryDx=0;entryDy=0;" edge="1" parent="1" source="7JvirAZWeiCpIkFWJVq3-2" target="TAEPjFpnTW_wvItJaBC--7">
          <mxGeometry relative="1" as="geometry" />
        </mxCell>
        <mxCell id="7JvirAZWeiCpIkFWJVq3-2" value="LeakTK-Scanner" style="rounded=0;whiteSpace=wrap;html=1;" parent="1" vertex="1">
          <mxGeometry x="105" y="140" width="120" height="60" as="geometry" />
        </mxCell>
        <mxCell id="7JvirAZWeiCpIkFWJVq3-4" value="Pattern Server" style="rounded=0;whiteSpace=wrap;html=1;" parent="1" vertex="1">
          <mxGeometry x="320" y="40" width="120" height="60" as="geometry" />
        </mxCell>
        <mxCell id="TAEPjFpnTW_wvItJaBC--13" style="edgeStyle=orthogonalEdgeStyle;rounded=0;orthogonalLoop=1;jettySize=auto;html=1;exitX=1;exitY=0.5;exitDx=0;exitDy=0;entryX=0.5;entryY=1;entryDx=0;entryDy=0;" edge="1" parent="1" source="7JvirAZWeiCpIkFWJVq3-14" target="TAEPjFpnTW_wvItJaBC--12">
          <mxGeometry relative="1" as="geometry" />
        </mxCell>
        <mxCell id="7JvirAZWeiCpIkFWJVq3-14" value="LeakTK-Forwarder&amp;nbsp;&lt;div&gt;(Email, Splunk, Webhook, Etc..)&lt;/div&gt;" style="rounded=0;whiteSpace=wrap;html=1;" parent="1" vertex="1">
          <mxGeometry x="70" y="340" width="190" height="60" as="geometry" />
        </mxCell>
        <mxCell id="TAEPjFpnTW_wvItJaBC--10" style="edgeStyle=orthogonalEdgeStyle;rounded=0;orthogonalLoop=1;jettySize=auto;html=1;exitX=0.5;exitY=1;exitDx=0;exitDy=0;" edge="1" parent="1" source="TAEPjFpnTW_wvItJaBC--7" target="7JvirAZWeiCpIkFWJVq3-14">
          <mxGeometry relative="1" as="geometry" />
        </mxCell>
        <mxCell id="TAEPjFpnTW_wvItJaBC--11" value="Analysis Results" style="edgeLabel;html=1;align=center;verticalAlign=middle;resizable=0;points=[];" vertex="1" connectable="0" parent="TAEPjFpnTW_wvItJaBC--10">
          <mxGeometry x="-0.1" y="2" relative="1" as="geometry">
            <mxPoint as="offset" />
          </mxGeometry>
        </mxCell>
        <mxCell id="TAEPjFpnTW_wvItJaBC--14" value="Scan Request" style="edgeStyle=orthogonalEdgeStyle;rounded=0;orthogonalLoop=1;jettySize=auto;html=1;exitX=0;exitY=0.5;exitDx=0;exitDy=0;entryX=0;entryY=0.5;entryDx=0;entryDy=0;" edge="1" parent="1" source="TAEPjFpnTW_wvItJaBC--7" target="7JvirAZWeiCpIkFWJVq3-2">
          <mxGeometry relative="1" as="geometry">
            <Array as="points">
              <mxPoint x="60" y="270" />
              <mxPoint x="60" y="170" />
            </Array>
          </mxGeometry>
        </mxCell>
        <mxCell id="TAEPjFpnTW_wvItJaBC--7" value="LeakTK-Analyst" style="rounded=0;whiteSpace=wrap;html=1;" vertex="1" parent="1">
          <mxGeometry x="105" y="240" width="120" height="60" as="geometry" />
        </mxCell>
        <mxCell id="TAEPjFpnTW_wvItJaBC--15" style="edgeStyle=orthogonalEdgeStyle;rounded=0;orthogonalLoop=1;jettySize=auto;html=1;exitX=0;exitY=0.5;exitDx=0;exitDy=0;entryX=1;entryY=0.5;entryDx=0;entryDy=0;" edge="1" parent="1" source="TAEPjFpnTW_wvItJaBC--12" target="TAEPjFpnTW_wvItJaBC--7">
          <mxGeometry relative="1" as="geometry" />
        </mxCell>
        <mxCell id="TAEPjFpnTW_wvItJaBC--16" value="Responses" style="edgeLabel;html=1;align=center;verticalAlign=middle;resizable=0;points=[];" vertex="1" connectable="0" parent="TAEPjFpnTW_wvItJaBC--15">
          <mxGeometry x="0.0105" y="-1" relative="1" as="geometry">
            <mxPoint as="offset" />
          </mxGeometry>
        </mxCell>
        <mxCell id="TAEPjFpnTW_wvItJaBC--12" value="Users &amp;amp;&lt;div&gt;External Systems&lt;/div&gt;" style="rounded=0;whiteSpace=wrap;html=1;" vertex="1" parent="1">
          <mxGeometry x="320" y="240" width="120" height="60" as="geometry" />
        </mxCell>
      </root>
    </mxGraphModel>
  </diagram>
</mxfile>
